<svg width="701" height="833" viewBox="0 0 701 833" fill="none" xmlns="http://www.w3.org/2000/svg">
<g filter="url(#filter0_i_1_29)">
<path fill-rule="evenodd" clip-rule="evenodd" d="M692.596 574.335C731.063 473.077 618.057 495.809 601.095 437.941C580.489 367.647 729.002 43.8338 637.823 4.5427C473.408 -32.1282 425.522 188.601 350.068 197.017C276.918 205.176 156.67 225.453 93.875 263.849C33.7687 300.602 -49.0902 413.311 39.7789 506.39C108.113 574.396 152.689 553.438 173.389 607.341C195.307 664.416 198.952 731.298 245.285 771.188C295.498 814.417 365.735 842.769 430.477 828.676C493.491 814.959 522.898 745.593 569.18 700.684C612.492 658.657 679.791 633.312 692.596 574.335Z" fill="#162C4E"/>
</g>
<defs>
<filter id="filter0_i_1_29" x="0.838074" y="0.435547" width="699.692" height="835.887" filterUnits="userSpaceOnUse" color-interpolation-filters="sRGB">
<feFlood flood-opacity="0" result="BackgroundImageFix"/>
<feBlend mode="normal" in="SourceGraphic" in2="BackgroundImageFix" result="shape"/>
<feColorMatrix in="SourceAlpha" type="matrix" values="0 0 0 0 0 0 0 0 0 0 0 0 0 0 0 0 0 0 127 0" result="hardAlpha"/>
<feOffset dy="4"/>
<feGaussianBlur stdDeviation="15"/>
<feComposite in2="hardAlpha" operator="arithmetic" k2="-1" k3="1"/>
<feColorMatrix type="matrix" values="0 0 0 0 0 0 0 0 0 0 0 0 0 0 0 0 0 0 1 0"/>
<feBlend mode="normal" in2="shape" result="effect1_innerShadow_1_29"/>
</filter>
</defs>
</svg>
